<svg xmlns="http://www.w3.org/2000/svg" width="223" height="36" viewBox="0 0 223 36">
	<title>
		website-logo-full
	</title>
	<g>
		<rect width="223" height="36" fill="#673ab7" rx="1" ry="1"/>
		<g>
			<path fill="#fff" d="M54.79,20.22a5.13,5.13,0,0,1-1.68,3.55A5.73,5.73,0,0,1,49.21,25a5.55,5.55,0,0,1-3-.81,5.29,5.29,0,0,1-2-2.29,8.26,8.26,0,0,1-.73-3.45V17.17a8.33,8.33,0,0,1,.71-3.54,5.37,5.37,0,0,1,2-2.36,5.71,5.71,0,0,1,3.08-.83,5.5,5.5,0,0,1,3.79,1.27,5.32,5.32,0,0,1,1.67,3.61H52.33a3.51,3.51,0,0,0-.89-2.21,3,3,0,0,0-2.1-.68,2.89,2.89,0,0,0-2.48,1.18A5.89,5.89,0,0,0,46,17.06v1.26a6.24,6.24,0,0,0,.83,3.52A2.74,2.74,0,0,0,49.21,23a3.19,3.19,0,0,0,2.19-.65,3.41,3.41,0,0,0,.93-2.18Z" transform="translate(0 0)"/>
			<path fill="#fff" d="M59.11,15.43A3.71,3.71,0,0,1,62,14.08q3.38,0,3.43,3.86v6.9H63.1V18a2.09,2.09,0,0,0-.47-1.55A1.94,1.94,0,0,0,61.23,16a2.29,2.29,0,0,0-2.13,1.27v7.55H56.73v-15h2.37Z" transform="translate(0 0)"/>
			<path fill="#fff" d="M74.18,24.84a3.67,3.67,0,0,1-.27-1,4,4,0,0,1-5.37.27,2.91,2.91,0,0,1-1-2.25,3,3,0,0,1,1.25-2.59,6.08,6.08,0,0,1,3.59-.9h1.46V17.7a1.85,1.85,0,0,0-.46-1.31,1.82,1.82,0,0,0-1.4-.49,2.09,2.09,0,0,0-1.33.41,1.25,1.25,0,0,0-.52,1H67.76a2.63,2.63,0,0,1,.58-1.63,3.84,3.84,0,0,1,1.57-1.19,5.5,5.5,0,0,1,2.21-.43,4.44,4.44,0,0,1,3,.93,3.32,3.32,0,0,1,1.13,2.62V22.4a5.4,5.4,0,0,0,.4,2.28v.17Zm-2.61-1.71a2.7,2.7,0,0,0,1.32-.34,2.28,2.28,0,0,0,.93-.92v-2H72.55a3.5,3.5,0,0,0-2,.46,1.49,1.49,0,0,0-.66,1.3,1.39,1.39,0,0,0,.45,1.09A1.76,1.76,0,0,0,71.58,23.14Z" transform="translate(0 0)"/>
			<path fill="#fff" d="M80.89,14.28,81,15.5A3.8,3.8,0,0,1,84,14.08q3.3,0,3.36,3.78v7H85V18a2.18,2.18,0,0,0-.43-1.49A1.83,1.83,0,0,0,83.17,16,2.29,2.29,0,0,0,81,17.33v7.52H78.66V14.28Z" transform="translate(0 0)"/>
			<path fill="#fff" d="M97.69,19.78h1.77v1.9H97.69v3.16H95.32V21.68H89.17l-.07-1.45,6.13-9.61h2.45Zm-6.09,0h3.72V13.84l-.18.31Z" transform="translate(0 0)"/>
			<path fill="#fff" d="M110.3,18.86a7.75,7.75,0,0,1-1.15,4.62A4.05,4.05,0,0,1,105.66,25a4.11,4.11,0,0,1-3.47-1.52A7.43,7.43,0,0,1,101,19V16.56a7.64,7.64,0,0,1,1.15-4.6,4.78,4.78,0,0,1,7,0,7.4,7.4,0,0,1,1.18,4.47Zm-2.37-2.66a6,6,0,0,0-.55-2.93,2.09,2.09,0,0,0-3.45,0,5.56,5.56,0,0,0-.58,2.76V19.2a6.17,6.17,0,0,0,.56,3,1.87,1.87,0,0,0,1.75,1,1.84,1.84,0,0,0,1.69-.9,5.8,5.8,0,0,0,.58-2.83Z" transform="translate(0 0)"/>
			<path fill="#fff" d="M121.86,11.94l-5.68,12.9h-2.49l5.67-12.31H112v-1.9h9.85Z" transform="translate(0 0)"/>
			<path fill="#fff" d="M133.23,11.94l-5.68,12.9h-2.49l5.67-12.31h-7.35v-1.9h9.85Z" transform="translate(0 0)"/>
			<path fill="#fff" d="M136.76,22.34a1.36,1.36,0,0,1,1,.38,1.31,1.31,0,0,1,.36.94,1.26,1.26,0,0,1-.36.92,1.6,1.6,0,0,1-2,0,1.24,1.24,0,0,1-.37-.93,1.31,1.31,0,0,1,.36-.94A1.34,1.34,0,0,1,136.76,22.34Z" transform="translate(0 0)"/>
			<path fill="#fff" d="M152,23a4.72,4.72,0,0,1-2.14,1.52,8.72,8.72,0,0,1-3.11.52,6.12,6.12,0,0,1-3.16-.81,5.4,5.4,0,0,1-2.12-2.32,8.11,8.11,0,0,1-.78-3.52V17.28a7.52,7.52,0,0,1,1.54-5,5.35,5.35,0,0,1,4.31-1.81,5.66,5.66,0,0,1,3.77,1.18A5.07,5.07,0,0,1,152,15h-2.42a2.72,2.72,0,0,0-3-2.57,2.92,2.92,0,0,0-2.52,1.2,6.09,6.09,0,0,0-.89,3.51v1.09a5.78,5.78,0,0,0,1,3.58,3.2,3.2,0,0,0,2.7,1.27,3.56,3.56,0,0,0,2.7-.86V19.42h-2.93V17.55H152Z" transform="translate(0 0)"/>
			<path fill="#fff" d="M154.49,11.53a1.26,1.26,0,0,1,.35-.91,1.31,1.31,0,0,1,1-.36,1.33,1.33,0,0,1,1,.36,1.25,1.25,0,0,1,.35.91,1.22,1.22,0,0,1-.35.89,1.34,1.34,0,0,1-1,.36,1.32,1.32,0,0,1-1-.36A1.23,1.23,0,0,1,154.49,11.53ZM157,24.84h-2.37V14.28H157Z" transform="translate(0 0)"/>
			<path fill="#fff" d="M162.56,11.71v2.57h1.87V16h-1.87v5.9a1.3,1.3,0,0,0,.24.87,1.11,1.11,0,0,0,.85.27,3.66,3.66,0,0,0,.83-.1v1.84a5.84,5.84,0,0,1-1.56.22q-2.73,0-2.73-3V16h-1.74V14.28h1.74V11.71Z" transform="translate(0 0)"/>
			<path fill="#fff" d="M168.58,15.43a3.71,3.71,0,0,1,2.94-1.35q3.38,0,3.43,3.86v6.9h-2.37V18a2.09,2.09,0,0,0-.47-1.55,1.94,1.94,0,0,0-1.39-.45,2.29,2.29,0,0,0-2.13,1.27v7.55h-2.37v-15h2.37Z" transform="translate(0 0)"/>
			<path fill="#fff" d="M183.74,23.81a3.68,3.68,0,0,1-3,1.23,3.28,3.28,0,0,1-2.6-1,4.28,4.28,0,0,1-.88-2.91V14.28h2.37v6.82q0,2,1.67,2a2.35,2.35,0,0,0,2.33-1.24V14.28H186V24.84H183.8Z" transform="translate(0 0)"/>
			<path fill="#fff" d="M197.73,19.67a6.35,6.35,0,0,1-1.1,3.92,3.58,3.58,0,0,1-3,1.46,3.45,3.45,0,0,1-2.89-1.34l-.12,1.14h-2.15v-15h2.37v5.45a3.44,3.44,0,0,1,2.76-1.21,3.62,3.62,0,0,1,3,1.44,6.45,6.45,0,0,1,1.1,4Zm-2.37-.21a4.48,4.48,0,0,0-.61-2.58A2,2,0,0,0,193,16a2.2,2.2,0,0,0-2.17,1.35v4.36A2.23,2.23,0,0,0,193,23.11a2,2,0,0,0,1.72-.83,4.35,4.35,0,0,0,.63-2.51Z" transform="translate(0 0)"/>
			<path fill="#fff" d="M201.2,22.34a1.36,1.36,0,0,1,1,.38,1.31,1.31,0,0,1,.36.94,1.26,1.26,0,0,1-.36.92,1.6,1.6,0,0,1-2,0,1.24,1.24,0,0,1-.37-.93,1.31,1.31,0,0,1,.36-.94A1.34,1.34,0,0,1,201.2,22.34Z" transform="translate(0 0)"/>
			<path fill="#fff" d="M205.31,11.53a1.26,1.26,0,0,1,.35-.91,1.31,1.31,0,0,1,1-.36,1.33,1.33,0,0,1,1,.36,1.25,1.25,0,0,1,.35.91,1.22,1.22,0,0,1-.35.89,1.34,1.34,0,0,1-1,.36,1.32,1.32,0,0,1-1-.36A1.23,1.23,0,0,1,205.31,11.53Zm2.52,13.31h-2.37V14.28h2.37Z" transform="translate(0 0)"/>
			<path fill="#fff" d="M210,19.46a6.23,6.23,0,0,1,.62-2.8,4.49,4.49,0,0,1,1.73-1.91,4.87,4.87,0,0,1,2.56-.67,4.62,4.62,0,0,1,3.47,1.38,5.42,5.42,0,0,1,1.44,3.65v.56a6.29,6.29,0,0,1-.6,2.79,4.44,4.44,0,0,1-1.72,1.9,4.91,4.91,0,0,1-2.58.67,4.58,4.58,0,0,1-3.58-1.49,5.7,5.7,0,0,1-1.34-4Zm2.37.21a4.26,4.26,0,0,0,.67,2.55,2.19,2.19,0,0,0,1.88.92,2.17,2.17,0,0,0,1.87-.94,4.7,4.7,0,0,0,.67-2.74,4.2,4.2,0,0,0-.69-2.54,2.32,2.32,0,0,0-3.72,0A4.61,4.61,0,0,0,212.34,19.67Z" transform="translate(0 0)"/>
		</g>
		<rect width="29.45" height="29.45" x="3.27" y="3.27" fill="#ffd740" rx="1" ry="1"/>
		<path d="M23.34,20a5.13,5.13,0,0,1-1.63,3.42,5.36,5.36,0,0,1-3.66,1.2,4.92,4.92,0,0,1-4-1.77,7.14,7.14,0,0,1-1.49-4.75V16.71a8,8,0,0,1,.69-3.42,5.19,5.19,0,0,1,2-2.27,5.49,5.49,0,0,1,3-.79,5,5,0,0,1,3.57,1.24,5.2,5.2,0,0,1,1.56,3.44H21.49a4,4,0,0,0-1-2.42,3.15,3.15,0,0,0-2.24-.75A3.29,3.29,0,0,0,15.45,13a6,6,0,0,0-1,3.71v1.35a6.16,6.16,0,0,0,.95,3.62,3.07,3.07,0,0,0,2.66,1.34,3.54,3.54,0,0,0,2.35-.7A3.86,3.86,0,0,0,21.49,20Z" transform="translate(0 0)"/>
	</g>
</svg>
